<svg width="45" height="44" viewBox="0 0 45 44" fill="none" xmlns="http://www.w3.org/2000/svg">
<g clip-path="url(#clip0_323_668)">
<path d="M20.6684 43.9999V41.1985C19.9139 41.0989 19.1737 41.0581 18.4548 40.9118C13.8327 39.968 10.0199 37.8106 7.49864 33.7697C6.86597 32.7302 6.42981 31.5873 6.21111 30.3959C6.05372 29.5994 6.48932 29.0628 7.27321 29.1922C11.478 29.8821 15.3873 31.2301 18.4243 34.3312C19.1646 35.0878 19.7251 36.0117 20.3648 36.8609C20.4501 36.9744 20.513 37.1038 20.6694 37.3587V36.7902C20.6694 34.6548 20.6785 32.5193 20.6582 30.3839C20.6383 30.1139 20.5481 29.8534 20.3962 29.6273C19.9688 28.9413 19.5047 28.2763 19.0975 27.6671C18.3441 28.1479 17.5267 28.7044 16.6738 29.2032C15.8615 29.6771 15.303 29.4591 15.0725 28.577C14.8197 27.6123 14.6389 26.6307 14.449 25.7546C13.5728 25.9209 12.5929 26.1319 11.6059 26.2863C10.685 26.4296 10.2321 26.0214 10.3489 25.1175C10.4748 24.1429 10.6941 23.1812 10.8566 22.2941C9.99144 22.1159 9.00854 21.9427 8.04289 21.7048C7.13919 21.4828 6.90056 20.9253 7.37577 20.1418C7.88347 19.2966 8.45819 18.4852 8.95574 17.7326C8.21754 17.2348 7.36156 16.6972 6.54823 16.1029C5.81105 15.5643 5.81815 14.952 6.56446 14.4104C7.36866 13.828 8.21145 13.2974 8.95675 12.7986C8.46631 12.055 7.88753 11.2317 7.36765 10.3745C6.90666 9.6149 7.14426 9.05341 8.01141 8.83837C8.98416 8.59646 9.97113 8.41229 10.8545 8.22413C10.6941 7.3371 10.4758 6.34256 10.3468 5.33706C10.2453 4.54062 10.6799 4.13146 11.4831 4.24196C12.5076 4.38831 13.524 4.5924 14.4572 4.75567C14.645 3.89452 14.8298 2.90096 15.0837 1.92434C15.2999 1.08908 15.8635 0.853129 16.6068 1.28519C17.4831 1.79491 18.3228 2.36437 19.0803 2.84422C19.5961 2.11349 20.1546 1.27326 20.7658 0.472841C21.2522 -0.16331 21.9224 -0.16331 22.4098 0.472841C23.019 1.27425 23.5775 2.11548 24.0913 2.84422C24.8488 2.36237 25.6915 1.79592 26.5668 1.28321C27.2908 0.860108 27.8696 1.08411 28.0767 1.88054C28.3346 2.86413 28.5265 3.86465 28.7256 4.76761C29.6171 4.60832 30.6457 4.39826 31.6814 4.24793C32.4937 4.13145 32.9293 4.53564 32.8268 5.33108C32.6968 6.33658 32.4775 7.33113 32.3191 8.22612C33.2126 8.41528 34.2158 8.60244 35.2028 8.84734C36.006 9.04645 36.2588 9.62784 35.8374 10.3247C35.3094 11.1968 34.7205 12.0341 34.2219 12.7937C34.9865 13.3114 35.8557 13.8629 36.6812 14.4692C37.3422 14.953 37.3372 15.5802 36.6711 16.068C35.8587 16.6653 34.9987 17.2129 34.2199 17.7415C34.6941 18.4543 35.2637 19.2557 35.7724 20.093C36.2811 20.9302 36.0537 21.4788 35.0901 21.7197C34.1498 21.9536 33.1923 22.1179 32.2074 22.317C32.1972 22.2623 32.1962 22.3429 32.2287 22.4076C32.6785 23.3036 32.775 24.2782 32.843 25.2519C32.8948 25.9816 32.4683 26.4007 31.7261 26.2962C30.6853 26.1489 29.6546 25.9338 28.7164 25.7656C28.5255 26.6387 28.3387 27.6342 28.0838 28.6128C27.8696 29.4341 27.2918 29.6641 26.5465 29.2291C25.6844 28.7253 24.8559 28.1678 24.075 27.674C23.6232 28.3341 23.1002 29.0897 22.5885 29.8533C22.53 29.9513 22.5004 30.0633 22.5032 30.1768C22.4991 32.5933 22.4991 35.0102 22.5032 37.4274C22.5032 37.4532 22.5276 37.4791 22.5611 37.5448C22.7641 37.1844 22.952 36.839 23.1581 36.5085C24.8945 33.7299 27.4441 31.929 30.4578 30.6955C32.1769 29.9917 33.9691 29.5307 35.7998 29.2131C36.8213 29.0359 37.2854 29.4959 37.0803 30.4994C36.538 33.1525 35.1084 35.2999 33.0512 37.0481C30.1268 39.5369 26.7252 40.9157 22.8474 41.1358L22.4971 41.1596V43.9979L20.6684 43.9999ZM10.5956 15.2756C10.5956 18.1319 11.7529 20.8712 13.8129 22.8909C15.8729 24.9107 18.6669 26.0453 21.5802 26.0453C24.4935 26.0453 27.2875 24.9107 29.3475 22.8909C31.4075 20.8712 32.5648 18.1319 32.5648 15.2756C32.5709 9.31922 27.6228 4.46795 21.5558 4.48189C15.5071 4.49682 10.5794 9.3471 10.5956 15.2756V15.2756Z" fill="white"/>
<path d="M30.7289 15.2805C30.7283 16.4584 30.4911 17.6247 30.0307 18.7127C29.5704 19.8008 28.896 20.7893 28.0461 21.6218C27.1961 22.4543 26.1872 23.1145 25.077 23.5647C23.9668 24.015 22.777 24.2464 21.5756 24.2458C20.3741 24.2452 19.1846 24.0126 18.0748 23.5613C16.9651 23.11 15.9569 22.4488 15.1078 21.6155C14.2587 20.7821 13.5853 19.793 13.1261 18.7045C12.6668 17.616 12.4308 16.4494 12.4314 15.2715C12.4314 10.3028 16.557 6.25589 21.6096 6.27878C24.035 6.29116 26.3566 7.24545 28.0658 8.93266C29.7751 10.6199 30.7327 12.9025 30.7289 15.2805V15.2805ZM21.5791 16.1625C21.8183 16.159 22.0469 16.0651 22.2171 15.9004C22.3874 15.7357 22.4862 15.5129 22.493 15.2785C22.505 15.1543 22.4904 15.029 22.4501 14.9106C22.4098 14.7922 22.3448 14.6834 22.2591 14.5911C22.1735 14.4988 22.0691 14.4251 21.9527 14.3746C21.8363 14.3242 21.7105 14.2981 21.5832 14.2981C21.4559 14.2981 21.3301 14.3242 21.2137 14.3746C21.0973 14.4251 20.9929 14.4988 20.9073 14.5911C20.8216 14.6834 20.7566 14.7922 20.7163 14.9106C20.676 15.029 20.6614 15.1543 20.6734 15.2785C20.6796 15.5117 20.7771 15.7337 20.9458 15.8983C21.1144 16.0629 21.3412 16.1575 21.5791 16.1625V16.1625ZM17.9349 16.1625C18.1733 16.1515 18.3986 16.0521 18.5652 15.8845C18.7318 15.7169 18.8273 15.4936 18.8325 15.2596C18.8302 15.1396 18.8033 15.0214 18.7536 14.9118C18.7038 14.8023 18.6321 14.7036 18.5427 14.6217C18.4533 14.5398 18.348 14.4764 18.2332 14.4351C18.1183 14.3938 17.9961 14.3756 17.8739 14.3815C17.7557 14.3845 17.6393 14.4108 17.5317 14.4586C17.424 14.5065 17.3272 14.5751 17.247 14.6603C17.1668 14.7455 17.1049 14.8456 17.0648 14.9547C17.0248 15.0638 17.0075 15.1797 17.0139 15.2954C17.0216 15.5292 17.1222 15.7508 17.2943 15.9128C17.4664 16.0749 17.6963 16.1645 17.9349 16.1625V16.1625ZM16.0787 11.6826C15.9605 11.6803 15.8431 11.7014 15.7335 11.7447C15.6238 11.7879 15.5242 11.8524 15.4406 11.9343C15.357 12.0162 15.2911 12.1138 15.2468 12.2212C15.2026 12.3287 15.1809 12.4438 15.1831 12.5597C15.1793 12.7938 15.2698 13.0199 15.435 13.189C15.6002 13.358 15.8268 13.4564 16.0655 13.4626C16.3129 13.4618 16.5499 13.3654 16.7252 13.1943C16.9005 13.0232 16.9998 12.7912 17.0017 12.5487C16.9927 12.3154 16.8912 12.0948 16.7189 11.9338C16.5465 11.7728 16.3168 11.6841 16.0787 11.6866V11.6826ZM27.9772 12.5865C27.9826 12.4708 27.9643 12.3551 27.9232 12.2464C27.8821 12.1377 27.8191 12.0382 27.738 11.9539C27.6569 11.8695 27.5594 11.8021 27.4511 11.7555C27.3429 11.7088 27.2262 11.6841 27.108 11.6826C26.9855 11.6778 26.8633 11.6972 26.7487 11.7396C26.634 11.782 26.5292 11.8466 26.4406 11.9296C26.3519 12.0125 26.2812 12.1121 26.2325 12.2224C26.1839 12.3327 26.1584 12.4514 26.1576 12.5716C26.1653 12.8063 26.2642 13.0292 26.4341 13.1947C26.604 13.3601 26.832 13.4556 27.0714 13.4616C27.3087 13.4617 27.5365 13.3704 27.7059 13.2075C27.8752 13.0446 27.9726 12.8231 27.9772 12.5905V12.5865ZM26.1494 15.2546C26.1509 15.1387 26.1287 15.0236 26.084 14.9163C26.0394 14.8089 25.9732 14.7115 25.8894 14.6297C25.8055 14.5479 25.7058 14.4834 25.5962 14.4401C25.4865 14.3968 25.369 14.3755 25.2508 14.3775C25.0122 14.3753 24.7822 14.4647 24.6099 14.6265C24.4377 14.7884 24.3368 15.0098 24.3288 15.2436C24.331 15.4861 24.4302 15.718 24.6051 15.8893C24.7801 16.0607 25.0167 16.1577 25.264 16.1595C25.5019 16.1518 25.7274 16.0533 25.8924 15.885C26.0574 15.7167 26.1489 15.492 26.1474 15.2586L26.1494 15.2546ZM20.6663 17.9426C20.6615 17.708 20.5631 17.4847 20.3922 17.3206C20.2214 17.1564 19.9917 17.0644 19.7524 17.0645C19.634 17.0622 19.5163 17.083 19.4061 17.1256C19.2959 17.1683 19.1955 17.2318 19.1105 17.3127C19.0255 17.3937 18.9577 17.4903 18.9111 17.597C18.8644 17.7037 18.8397 17.8185 18.8386 17.9346C18.8372 18.0547 18.8603 18.1739 18.9065 18.2852C18.9526 18.3965 19.021 18.4976 19.1075 18.5827C19.194 18.6678 19.2969 18.7351 19.4103 18.7808C19.5236 18.8264 19.6451 18.8494 19.7677 18.8485C20.0054 18.8389 20.2305 18.7406 20.3968 18.5736C20.5631 18.4067 20.658 18.1838 20.6622 17.9505L20.6663 17.9426ZM21.5801 19.7534C21.3984 19.7535 21.2208 19.8067 21.0701 19.9062C20.9193 20.0057 20.8023 20.147 20.7338 20.3121C20.6654 20.4771 20.6487 20.6584 20.6859 20.8328C20.7231 21.0072 20.8125 21.1668 20.9427 21.2911C21.0728 21.4155 21.2378 21.499 21.4166 21.5309C21.5954 21.5629 21.7798 21.5418 21.9463 21.4705C22.1129 21.3991 22.2539 21.2807 22.3515 21.1304C22.449 20.9801 22.4986 20.8047 22.494 20.6265C22.4858 20.3934 22.3852 20.1727 22.2136 20.0111C22.042 19.8496 21.813 19.76 21.5751 19.7614L21.5801 19.7534ZM19.7606 11.6796C19.6424 11.6764 19.5248 11.6964 19.4145 11.7383C19.3043 11.7802 19.2037 11.8432 19.1187 11.9236C19.0336 12.0041 18.9657 12.1004 18.919 12.2068C18.8723 12.3133 18.8477 12.4278 18.8467 12.5437C18.8444 12.6637 18.8667 12.783 18.9123 12.8944C18.9578 13.0058 19.0258 13.107 19.1121 13.1922C19.1984 13.2773 19.3012 13.3446 19.4145 13.3901C19.5278 13.4355 19.6493 13.4581 19.7717 13.4566C20.0098 13.4485 20.2357 13.351 20.4025 13.1842C20.5694 13.0175 20.6646 12.7942 20.6683 12.5607C20.6638 12.3267 20.5654 12.1039 20.3946 11.9405C20.2237 11.7771 19.9941 11.6862 19.7555 11.6876L19.7606 11.6796ZM23.4393 11.6796C23.2006 11.6712 22.9683 11.7559 22.793 11.915C22.6178 12.0741 22.5139 12.2948 22.5041 12.5288C22.5012 12.6488 22.5226 12.7682 22.567 12.8801C22.6115 12.9919 22.6781 13.094 22.7632 13.1804C22.8482 13.2668 22.9498 13.3358 23.0622 13.3834C23.1746 13.431 23.2956 13.4562 23.418 13.4576C23.6569 13.4553 23.8853 13.3614 24.0544 13.196C24.2235 13.0305 24.3198 12.8068 24.3227 12.5726C24.3246 12.457 24.303 12.3423 24.2592 12.235C24.2154 12.1277 24.1503 12.03 24.0676 11.9476C23.9849 11.8652 23.8863 11.7998 23.7776 11.7552C23.6688 11.7105 23.5521 11.6875 23.4343 11.6876L23.4393 11.6796ZM15.175 15.2506C15.17 15.0163 15.0715 14.7932 14.9006 14.6292C14.7298 14.4653 14.5002 14.3735 14.2611 14.3735C14.1429 14.3692 14.0251 14.3885 13.9147 14.4301C13.8043 14.4718 13.7037 14.5349 13.6189 14.6158C13.5341 14.6967 13.467 14.7936 13.4215 14.9006C13.376 15.0077 13.3532 15.1227 13.3544 15.2387C13.3517 15.3586 13.3735 15.4778 13.4187 15.5893C13.4638 15.7008 13.5314 15.8022 13.6173 15.8876C13.7031 15.9731 13.8057 16.0407 13.9187 16.0866C14.0317 16.1324 14.153 16.1555 14.2754 16.1546C14.5118 16.142 14.7348 16.043 14.9004 15.8771C15.066 15.7113 15.1621 15.4906 15.1699 15.2586L15.175 15.2506ZM28.9194 16.1565C29.1583 16.1513 29.3855 16.0547 29.5526 15.8872C29.7196 15.7197 29.8131 15.4948 29.813 15.2606C29.817 15.1405 29.7952 15.021 29.7492 14.9097C29.7032 14.7983 29.6339 14.6977 29.5458 14.6142C29.4577 14.5308 29.3527 14.4663 29.2377 14.425C29.1226 14.3837 29.0001 14.3666 28.8778 14.3745C28.6392 14.3813 28.4129 14.48 28.2479 14.6492C28.083 14.8184 27.9926 15.0445 27.9965 15.2785C28.0069 15.5126 28.1074 15.7341 28.2777 15.8985C28.448 16.0629 28.6755 16.1579 28.9144 16.1645L28.9194 16.1565ZM17.0068 17.9684C17.0088 17.7344 16.9172 17.5088 16.7517 17.3401C16.5863 17.1713 16.36 17.0728 16.1214 17.0655C16.0034 17.0592 15.8853 17.0761 15.7741 17.1153C15.6629 17.1545 15.5609 17.2152 15.474 17.2937C15.3871 17.3722 15.3171 17.467 15.2682 17.5724C15.2193 17.6779 15.1924 17.7919 15.1892 17.9077C15.1831 18.0277 15.2016 18.1476 15.2437 18.2604C15.2858 18.3732 15.3506 18.4766 15.4342 18.5644C15.5178 18.6521 15.6186 18.7225 15.7306 18.7713C15.8425 18.8201 15.9633 18.8464 16.0858 18.8485C16.3222 18.8421 16.5475 18.749 16.7171 18.5875C16.8867 18.4259 16.9883 18.2079 17.0017 17.9764L17.0068 17.9684ZM17.9267 10.7547C18.0457 10.7524 18.163 10.7272 18.272 10.6805C18.381 10.6337 18.4795 10.5664 18.562 10.4823C18.6444 10.3982 18.7092 10.2991 18.7526 10.1905C18.7959 10.0818 18.817 9.96591 18.8147 9.84929C18.8124 9.73268 18.7866 9.61766 18.739 9.5108C18.6913 9.40393 18.6226 9.30732 18.5369 9.22647C18.4511 9.14563 18.3499 9.08214 18.2392 9.03963C18.1284 8.99711 18.0101 8.97641 17.8912 8.97869C17.651 8.98331 17.4225 9.0813 17.256 9.25111C17.0894 9.42091 16.9985 9.64862 17.0032 9.88414C17.0079 10.1197 17.1079 10.3437 17.2811 10.507C17.4543 10.6702 17.6865 10.7594 17.9267 10.7547V10.7547ZM22.496 9.87767C22.5001 9.69967 22.4499 9.52452 22.352 9.37458C22.2541 9.22464 22.1128 9.1067 21.9462 9.03582C21.7796 8.96494 21.5952 8.94434 21.4167 8.97663C21.2381 9.00892 21.0734 9.09265 20.9435 9.21713C20.8137 9.3416 20.7246 9.50119 20.6876 9.67551C20.6507 9.84984 20.6676 10.031 20.7361 10.1959C20.8046 10.3608 20.9217 10.5019 21.0724 10.6012C21.2231 10.7006 21.4006 10.7537 21.5822 10.7538C21.8192 10.7538 22.0469 10.6631 22.2167 10.5009C22.3864 10.3387 22.4849 10.118 22.491 9.88563L22.496 9.87767ZM26.1515 9.88563C26.1554 9.76965 26.1358 9.65407 26.0939 9.54555C26.052 9.43703 25.9886 9.33774 25.9073 9.2534C25.826 9.16907 25.7284 9.10136 25.6203 9.05421C25.5121 9.00706 25.3955 8.98139 25.2772 8.97869C25.037 8.97407 24.8047 9.0632 24.6316 9.22647C24.4584 9.38974 24.3584 9.61378 24.3537 9.84929C24.349 10.0848 24.4399 10.3125 24.6064 10.4823C24.773 10.6521 25.0015 10.7501 25.2417 10.7547C25.3588 10.7566 25.4752 10.7358 25.5842 10.6935C25.6931 10.6512 25.7925 10.5883 25.8766 10.5083C25.9607 10.4283 26.028 10.3328 26.0744 10.2274C26.1209 10.1219 26.1457 10.0085 26.1474 9.8936L26.1515 9.88563ZM24.3237 17.9724C24.3274 17.8565 24.3077 17.7411 24.2658 17.6327C24.2238 17.5243 24.1605 17.4251 24.0793 17.3407C23.9982 17.2564 23.9009 17.1886 23.793 17.1412C23.6851 17.0938 23.5687 17.0677 23.4505 17.0645C23.2121 17.0557 22.9797 17.1387 22.8029 17.2957C22.626 17.4527 22.5188 17.6713 22.5041 17.9047C22.5001 18.0248 22.5202 18.1446 22.5634 18.257C22.6066 18.3695 22.672 18.4725 22.7558 18.5602C22.8397 18.6479 22.9404 18.7184 23.0521 18.7679C23.1638 18.8174 23.2843 18.8448 23.4068 18.8485C23.6435 18.8464 23.8702 18.755 24.04 18.5934C24.2098 18.4317 24.3096 18.2122 24.3187 17.9804L24.3237 17.9724ZM27.0907 18.8485C27.3292 18.8428 27.5559 18.7459 27.7225 18.5785C27.8891 18.411 27.9823 18.1864 27.9822 17.9525C27.9848 17.8324 27.962 17.713 27.9152 17.602C27.8684 17.4909 27.7986 17.3906 27.7103 17.3074C27.6219 17.2241 27.5169 17.1597 27.4019 17.1182C27.2868 17.0768 27.1643 17.0592 27.042 17.0665C26.8035 17.0758 26.5782 17.1762 26.4143 17.3463C26.2504 17.5163 26.1608 17.7425 26.1647 17.9764C26.1757 18.2103 26.277 18.4313 26.448 18.5947C26.619 18.7581 26.8469 18.8517 27.0856 18.8565L27.0907 18.8485ZM18.8375 20.6405C18.8342 20.4063 18.738 20.1825 18.5693 20.0166C18.4006 19.8507 18.1727 19.7556 17.9339 19.7515C17.8072 19.7397 17.6793 19.754 17.5586 19.7935C17.4379 19.833 17.3269 19.8968 17.2328 19.9807C17.1386 20.0647 17.0634 20.167 17.012 20.2812C16.9605 20.3953 16.9339 20.5187 16.9339 20.6435C16.9339 20.7682 16.9605 20.8917 17.012 21.0058C17.0634 21.1199 17.1386 21.2222 17.2328 21.3062C17.3269 21.3902 17.4379 21.4539 17.5586 21.4934C17.6793 21.5329 17.8072 21.5472 17.9339 21.5355C18.1702 21.5277 18.3947 21.432 18.5616 21.2678C18.7285 21.1036 18.8254 20.8832 18.8325 20.6514L18.8375 20.6405ZM26.1484 20.6614C26.1553 20.4275 26.0673 20.2004 25.9039 20.0299C25.7404 19.8594 25.5147 19.7593 25.2762 19.7515C25.1536 19.7479 25.0315 19.7684 24.9171 19.8117C24.8027 19.855 24.6983 19.9204 24.6101 20.0039C24.5218 20.0873 24.4515 20.1873 24.4032 20.2978C24.3549 20.4083 24.3296 20.5272 24.3288 20.6474C24.3348 20.8814 24.4322 21.1042 24.601 21.2697C24.7697 21.4351 24.997 21.5307 25.2356 21.5365C25.4721 21.5361 25.6992 21.4458 25.8693 21.2847C26.0393 21.1236 26.139 20.9041 26.1474 20.6723L26.1484 20.6614Z" fill="white"/>
</g>
<defs>
<clipPath id="clip0_323_668">
<rect width="44" height="44" fill="white" transform="translate(0.5)"/>
</clipPath>
</defs>
</svg>
