<svg width="44" height="44" viewBox="0 0 44 44" fill="none" xmlns="http://www.w3.org/2000/svg">
<path d="M43.4089 27.6912C43.1103 27.5466 43.0965 27.5121 43.1867 27.1955C43.1867 27.1955 43.1867 27.1955 43.1867 27.1473C43.3085 26.8042 43.3085 26.4302 43.1867 26.0871C43.1606 25.9993 43.117 25.9175 43.0586 25.8466C43.0001 25.7756 42.9281 25.7169 42.8465 25.674L42.541 25.495C42.541 25.3573 42.5896 25.2403 42.6104 25.1164C42.6663 24.7826 42.6303 24.4401 42.5063 24.125C42.3744 23.8152 42.3605 23.8015 42.0272 23.8221L41.7772 23.8565C41.3113 23.9639 40.8868 24.2031 40.5553 24.545C40.1576 24.9449 39.8165 25.3965 39.5416 25.8875C39.2824 26.3143 39.0324 26.748 38.7917 27.1886C38.4503 27.8006 37.8868 28.2608 37.2156 28.4759C36.651 28.6727 36.0574 28.7751 35.459 28.7789C34.5582 28.8138 33.6611 28.6467 32.8345 28.2901C32.4887 28.1472 32.1881 27.9145 31.9645 27.6164C31.7409 27.3184 31.6025 26.966 31.5639 26.5965C31.4736 25.97 31.432 25.3298 31.3764 24.6964C31.3217 23.8695 31.1607 23.0528 30.8974 22.2663C30.6895 21.5971 30.3754 20.9649 29.967 20.3937C29.5773 19.861 29.0282 19.4636 28.3978 19.2578C28.0647 19.1519 27.754 18.9862 27.4813 18.769C27.3147 18.645 27.1481 18.5142 26.9745 18.4041C26.8649 18.3371 26.7387 18.3016 26.61 18.3016C26.4813 18.3016 26.355 18.3371 26.2455 18.4041C26.1097 18.4793 25.9797 18.5645 25.8566 18.6588C25.69 18.7759 25.5442 18.9135 25.3845 19.0306C25.3058 19.081 25.2426 19.1521 25.2022 19.236C25.1617 19.3198 25.1456 19.4132 25.1554 19.5056C25.1554 19.7053 25.1554 19.898 25.1554 20.1045C24.9617 20.1794 24.7888 20.299 24.6511 20.4535C24.5134 20.6079 24.4149 20.7928 24.3639 20.9926H25.6622C25.6622 21.151 25.7247 21.2887 25.7595 21.4332C25.8091 21.6336 25.8693 21.8312 25.94 22.0253C25.9688 22.1222 26.0314 22.2058 26.1165 22.2613C26.2017 22.3168 26.304 22.3405 26.4052 22.3282C26.5718 22.3282 26.7315 22.28 26.8912 22.2525L27.1203 22.1974C27.1203 22.2387 27.1203 22.2456 27.1203 22.2594C27.2927 23.2079 27.1126 24.1861 26.6134 25.0131C26.3982 25.3711 26.1552 25.7016 25.9191 26.0458C25.5301 26.5439 25.208 27.09 24.961 27.6705C24.7458 28.2694 24.5375 28.8753 24.3639 29.488C24.1038 30.3633 24.0751 31.2902 24.2806 32.1798C24.6002 33.5765 25.3854 34.8256 26.5093 35.7252C27.0127 36.1259 27.5466 36.4872 28.1062 36.8061L28.3353 36.9506L26.3149 36.4205L26.0025 36.3173C25.1754 36.0035 24.406 35.5569 23.7251 34.9955C23.4649 34.7876 23.1484 34.6606 22.8156 34.6306C22.0726 34.5411 21.3297 34.4654 20.5938 34.3071C19.5668 34.1117 18.5653 33.8022 17.6082 33.3845C16.8854 33.08 16.2225 32.6511 15.6503 32.1178C15.5947 32.0627 15.5461 32.0008 15.4906 31.9388V31.8906H15.9141C16.5821 31.9961 17.2608 32.0192 17.9345 31.9595C18.1768 31.9382 18.4127 31.8704 18.6288 31.7598C18.3025 31.7116 17.9762 31.6841 17.6499 31.6565C17.0392 31.6104 16.4332 31.5161 15.8377 31.3743C14.7305 31.1113 13.7725 30.4261 13.1716 29.4673C12.8361 28.9761 12.5829 28.4345 12.4217 27.8633C12.3004 27.4566 12.3004 27.0238 12.4217 26.6172C12.451 26.5207 12.5068 26.4342 12.5828 26.3674C12.6588 26.3005 12.7521 26.2559 12.8522 26.2385C12.9873 26.2111 13.1267 26.2111 13.2618 26.2385C13.6298 26.3074 13.9908 26.4037 14.3449 26.5001C14.7912 26.653 15.2616 26.7253 15.7336 26.7135C16.087 26.7089 16.4242 26.5653 16.6709 26.3143C16.8301 26.1669 16.97 26.0004 17.0875 25.8186C17.3027 25.4537 17.4971 25.082 17.6846 24.7033C17.997 24.0699 18.2678 23.416 18.6011 22.7895C19.4849 21.0981 20.9689 19.791 22.767 19.1201L22.9614 19.0375V18.7552C22.9455 18.0655 22.9756 17.3756 23.0516 16.6899C23.1756 15.6465 23.565 14.6515 24.1833 13.7984C24.3179 13.6216 24.464 13.4537 24.6208 13.2959C24.7196 13.1909 24.849 13.1193 24.9909 13.0909C25.1329 13.0625 25.2802 13.0788 25.4123 13.1375C25.6011 13.2047 25.7806 13.2949 25.9469 13.406C26.3033 13.6664 26.6463 13.9444 26.9745 14.239C27.6886 14.9312 28.361 15.6645 28.988 16.4351C29.1199 16.5866 29.2657 16.7243 29.3976 16.8689L29.7518 16.7518C31.1751 16.2562 32.5984 15.7605 34.0287 15.2855C36.1512 14.5915 38.3175 14.0373 40.5136 13.6263C39.729 12.752 38.1877 12.2494 35.7437 12.4835L34.8272 12.573C33.9454 12.6487 33.0636 12.7382 32.1888 12.7795C31.3284 12.8243 30.4663 12.8243 29.6059 12.7795C28.693 12.7431 27.7849 12.6303 26.8912 12.4422C25.8862 12.2441 24.9305 11.8511 24.0792 11.2856C23.1863 10.7532 22.5235 9.91213 22.2185 8.92429C22.0809 8.48641 21.8433 8.0859 21.5241 7.75394C21.2767 7.45691 21.005 7.18059 20.7118 6.9278C19.5528 5.94258 18.2886 5.08614 16.9417 4.37372C15.7197 3.72658 14.4838 3.1001 13.3174 2.3497C13.0743 2.19825 12.7966 2.0812 12.5328 1.9504C12.4296 1.90314 12.3228 1.86402 12.2134 1.83337H12.1231C12.1622 2.13971 12.2793 2.43112 12.4634 2.68014C12.8146 3.17504 13.2122 3.63604 13.6506 4.05702C14.1853 4.594 14.7268 5.11722 15.2684 5.6542L15.5322 5.92956C15.4855 5.94735 15.4352 5.95354 15.3855 5.94754C15.3359 5.94154 15.2885 5.92354 15.2475 5.89514C14.706 5.64042 14.1505 5.39947 13.6159 5.12409C12.4831 4.54164 11.3927 3.88143 10.3526 3.14827C9.92588 2.85358 9.52834 2.51932 9.16538 2.15003C9.08701 2.04625 8.9784 1.96884 8.85424 1.92821C8.73008 1.88758 8.59633 1.88569 8.47106 1.92283C8.50578 2.07429 8.51965 2.21202 8.56131 2.3497C8.74255 2.89775 9.01475 3.41193 9.36671 3.87113C9.89681 4.64929 10.5402 5.34528 11.2761 5.93645C12.019 6.53539 12.7827 7.12057 13.5326 7.71263C14.1957 8.20627 14.8116 8.75937 15.3725 9.3649C15.6333 9.66028 15.8528 9.98908 16.0252 10.3425C16.1337 10.5358 16.1768 10.7585 16.148 10.9778C16.1193 11.1972 16.0202 11.4016 15.8655 11.561C15.1226 12.4147 14.3797 13.2752 13.6298 14.122C13.2522 14.5504 12.8259 14.9338 12.3592 15.2648C11.2944 16.0064 10.4426 17.01 9.88745 18.1769C8.88946 20.0988 7.70591 21.9202 6.3534 23.6156C5.3883 24.9098 4.38155 26.1835 3.29842 27.3814C2.85716 27.8969 2.35611 28.3591 1.80565 28.7582C1.51422 28.9681 1.23811 29.1982 0.97942 29.4467C0.486997 29.8795 0.157092 30.465 0.0435979 31.1077C-0.0698963 31.7504 0.0397295 32.4123 0.354543 32.9853C0.642637 33.5647 1.04658 34.08 1.54181 34.4998C2.35852 35.2211 3.37402 35.6838 4.45791 35.8285C5.50136 35.9873 6.56849 35.7985 7.49208 35.2915C7.91971 35.0222 8.40966 34.8659 8.91541 34.8372C9.30956 34.8351 9.70355 34.8534 10.0958 34.8922C10.8417 34.9707 11.5731 35.1514 12.2689 35.4292C12.7769 35.5993 13.3 35.7215 13.8311 35.7941C14.7407 35.9593 15.6572 36.1314 16.6084 36.276C17.739 36.4653 18.8851 36.5483 20.0314 36.5238L21.4964 36.4825C22.0397 36.4798 22.5797 36.5683 23.0933 36.7442L24.7596 37.2949C26.497 38.1033 28.3951 38.515 30.3141 38.4996C34.973 38.4996 38.875 36.2209 39.9443 33.1505C40.2697 32.7163 40.5577 32.2557 40.8052 31.7736C40.9468 31.5021 41.1021 31.2379 41.2704 30.9819C41.599 30.4426 42.1151 30.041 42.7215 29.8528C42.9202 29.7885 43.115 29.7126 43.3047 29.6257C43.5764 29.5026 43.7902 29.2808 43.9019 29.0061C43.9596 28.8881 43.9926 28.7598 43.9989 28.6289C44.0052 28.4979 43.9847 28.367 43.9387 28.2442C43.8926 28.1213 43.8219 28.009 43.7308 27.9139C43.6398 27.8189 43.5303 27.7431 43.4089 27.6912V27.6912Z" fill="white"/>
</svg>
