<svg width="317" height="48" viewBox="0 0 317 48" fill="none" xmlns="http://www.w3.org/2000/svg">
<rect width="24" height="24" fill="#DB011A"/>
<path d="M29.776 26V8.216H45.688V26H41.752V11.72H33.664V26H29.776ZM49.4926 26V8.216H58.0366C60.6446 8.216 62.4766 8.72 63.5326 9.728C64.6046 10.736 65.1406 12.216 65.1406 14.168C65.1406 15.128 65.0286 15.976 64.8046 16.712C64.5806 17.448 64.1966 18.12 63.6526 18.728C63.1246 19.32 62.3726 19.776 61.3966 20.096C60.4206 20.4 59.2366 20.552 57.8446 20.552H53.3326V26H49.4926ZM53.3326 17.192H58.0126C59.1486 17.192 59.9646 16.976 60.4606 16.544C60.9566 16.112 61.2046 15.384 61.2046 14.36C61.2046 13.304 60.9566 12.576 60.4606 12.176C59.9806 11.776 59.1486 11.576 57.9646 11.576H53.3326V17.192ZM76.2743 26.288C70.0023 26.288 66.8663 23.224 66.8663 17.096C66.8663 10.984 70.0023 7.928 76.2743 7.928C82.5623 7.928 85.7063 10.984 85.7063 17.096C85.7063 23.224 82.5623 26.288 76.2743 26.288ZM72.0743 21.392C72.9223 22.352 74.3223 22.832 76.2743 22.832C78.2263 22.832 79.6183 22.352 80.4503 21.392C81.2983 20.416 81.7223 19.008 81.7223 17.168C81.7223 15.328 81.2983 13.928 80.4503 12.968C79.6183 12.008 78.2263 11.528 76.2743 11.528C74.3223 11.528 72.9223 12.008 72.0743 12.968C71.2423 13.928 70.8263 15.328 70.8263 17.168C70.8263 19.008 71.2423 20.416 72.0743 21.392ZM88.5273 26V8.216H93.6633L98.4873 20.36L103.311 8.216H108.423V26H104.583V14.12L99.8073 26H96.8313L92.0793 14.192V26H88.5273ZM123.628 26L117.94 18.128H116.116V26H112.252V8.216H116.116V14.84H117.748L122.884 8.216H127.372L121.012 16.136L128.236 26H123.628ZM138.119 26.288C131.847 26.288 128.711 23.224 128.711 17.096C128.711 10.984 131.847 7.928 138.119 7.928C144.407 7.928 147.551 10.984 147.551 17.096C147.551 23.224 144.407 26.288 138.119 26.288ZM133.919 21.392C134.767 22.352 136.167 22.832 138.119 22.832C140.071 22.832 141.463 22.352 142.295 21.392C143.143 20.416 143.567 19.008 143.567 17.168C143.567 15.328 143.143 13.928 142.295 12.968C141.463 12.008 140.071 11.528 138.119 11.528C136.167 11.528 134.767 12.008 133.919 12.968C133.087 13.928 132.671 15.328 132.671 17.168C132.671 19.008 133.087 20.416 133.919 21.392ZM154.514 26V11.768H148.346V8.216H164.618V11.768H158.474V26H154.514ZM165.547 25.952V22.592H166.027C166.571 22.592 166.923 22.504 167.083 22.328C167.259 22.136 167.347 21.76 167.347 21.2V8.216H183.307V26H179.347V11.72H171.259V21.896C171.259 23.432 170.931 24.512 170.275 25.136C169.635 25.744 168.667 26.048 167.371 26.048C166.539 26.048 165.931 26.016 165.547 25.952ZM195.558 26.288C189.286 26.288 186.15 23.224 186.15 17.096C186.15 10.984 189.286 7.928 195.558 7.928C201.846 7.928 204.99 10.984 204.99 17.096C204.99 23.224 201.846 26.288 195.558 26.288ZM191.358 21.392C192.206 22.352 193.606 22.832 195.558 22.832C197.51 22.832 198.902 22.352 199.734 21.392C200.582 20.416 201.006 19.008 201.006 17.168C201.006 15.328 200.582 13.928 199.734 12.968C198.902 12.008 197.51 11.528 195.558 11.528C193.606 11.528 192.206 12.008 191.358 12.968C190.526 13.928 190.11 15.328 190.11 17.168C190.11 19.008 190.526 20.416 191.358 21.392ZM215.995 26.264C212.763 26.264 210.427 25.496 208.987 23.96C207.563 22.424 206.851 20.136 206.851 17.096C206.851 10.984 209.979 7.928 216.235 7.928C219.211 7.928 221.539 8.784 223.219 10.496L220.507 13.208C219.355 12.088 217.923 11.528 216.211 11.528C214.339 11.528 212.971 12 212.107 12.944C211.243 13.872 210.811 15.272 210.811 17.144C210.811 19.016 211.219 20.424 212.035 21.368C212.867 22.296 214.267 22.76 216.235 22.76C217.291 22.76 218.147 22.616 218.803 22.328C219.459 22.024 220.107 21.568 220.747 20.96L223.339 23.504C222.507 24.368 221.531 25.048 220.411 25.544C219.307 26.024 217.835 26.264 215.995 26.264ZM226.262 26V8.216H239.63V11.768H230.198V15.224H239.39V18.656H230.198V22.592H239.726V26H226.262ZM242.978 26V8.216H251.522C254.131 8.216 255.963 8.72 257.019 9.728C258.09 10.736 258.626 12.216 258.626 14.168C258.626 15.128 258.514 15.976 258.29 16.712C258.066 17.448 257.682 18.12 257.139 18.728C256.611 19.32 255.859 19.776 254.883 20.096C253.906 20.4 252.722 20.552 251.33 20.552H246.818V26H242.978ZM246.818 17.192H251.498C252.634 17.192 253.45 16.976 253.946 16.544C254.443 16.112 254.691 15.384 254.691 14.36C254.691 13.304 254.443 12.576 253.946 12.176C253.467 11.776 252.635 11.576 251.45 11.576H246.818V17.192ZM261.453 26V8.216H269.709C272.077 8.216 273.789 8.576 274.845 9.296C275.917 10 276.453 11.168 276.453 12.8C276.453 14.864 275.661 16.176 274.077 16.736C275.101 16.976 275.829 17.448 276.261 18.152C276.709 18.84 276.933 19.824 276.933 21.104C276.933 22.96 276.349 24.24 275.181 24.944C274.029 25.648 272.189 26 269.661 26H261.453ZM265.317 22.736H270.117C271.125 22.736 271.845 22.584 272.277 22.28C272.725 21.976 272.949 21.456 272.949 20.72C272.949 19.984 272.733 19.472 272.301 19.184C271.869 18.88 271.141 18.728 270.117 18.728H265.317V22.736ZM265.317 15.32H269.853C270.845 15.32 271.525 15.168 271.893 14.864C272.277 14.544 272.469 14.048 272.469 13.376C272.469 12.736 272.277 12.272 271.893 11.984C271.509 11.696 270.829 11.552 269.853 11.552H265.317V15.32ZM279.81 26V8.216H283.578V19.424L291.762 8.216H295.986V26H292.242V14L283.434 26H279.81ZM307.992 26.264C304.76 26.264 302.424 25.496 300.984 23.96C299.56 22.424 298.848 20.136 298.848 17.096C298.848 10.984 301.976 7.928 308.232 7.928C311.208 7.928 313.536 8.784 315.216 10.496L312.504 13.208C311.352 12.088 309.92 11.528 308.208 11.528C306.336 11.528 304.968 12 304.104 12.944C303.24 13.872 302.808 15.272 302.808 17.144C302.808 19.016 303.216 20.424 304.032 21.368C304.864 22.296 306.264 22.76 308.232 22.76C309.288 22.76 310.144 22.616 310.8 22.328C311.456 22.024 312.104 21.568 312.744 20.96L315.336 23.504C314.504 24.368 313.528 25.048 312.408 25.544C311.304 26.024 309.832 26.264 307.992 26.264Z" fill="#010101"/>
<path d="M29.14 43V34.72H30.28V38.155H35.08V34.72H36.22V43H35.08V39.235H30.28V43H29.14ZM41.395 43.15C40.315 43.15 39.56 42.935 39.13 42.505C38.7 42.075 38.485 41.47 38.485 40.69C38.485 39.52 38.875 38.72 39.655 38.29C40.445 37.85 41.895 37.63 44.005 37.63H44.5C44.49 37.25 44.455 36.945 44.395 36.715C44.345 36.475 44.24 36.265 44.08 36.085C43.93 35.905 43.705 35.78 43.405 35.71C43.115 35.63 42.735 35.59 42.265 35.59C41.345 35.59 40.52 35.83 39.79 36.31L39.19 35.425C39.52 35.195 39.97 34.99 40.54 34.81C41.12 34.62 41.725 34.525 42.355 34.525C43.055 34.525 43.615 34.585 44.035 34.705C44.465 34.825 44.795 35.03 45.025 35.32C45.255 35.61 45.405 35.95 45.475 36.34C45.555 36.72 45.595 37.23 45.595 37.87V40.99C45.595 41.44 45.64 41.72 45.73 41.83C45.82 41.94 46.06 41.995 46.45 41.995V42.985C46.4 43.005 46.25 43.015 46 43.015C45.54 43.015 45.215 42.94 45.025 42.79C44.845 42.63 44.72 42.36 44.65 41.98C44.39 42.38 44.005 42.675 43.495 42.865C42.995 43.055 42.295 43.15 41.395 43.15ZM41.56 42.175C42.6 42.175 43.35 41.945 43.81 41.485C44.27 41.015 44.5 40.275 44.5 39.265V38.665H44.065C42.835 38.665 41.905 38.72 41.275 38.83C40.655 38.94 40.215 39.13 39.955 39.4C39.705 39.67 39.58 40.075 39.58 40.615C39.58 41.135 39.725 41.525 40.015 41.785C40.315 42.045 40.83 42.175 41.56 42.175ZM48.032 42.985V41.995H48.392C48.792 41.995 49.052 41.92 49.172 41.77C49.292 41.62 49.352 41.33 49.352 40.9V34.72H56.417V43H55.277V35.74H50.477V41.02C50.477 41.75 50.352 42.265 50.102 42.565C49.862 42.865 49.412 43.015 48.752 43.015C48.352 43.015 48.112 43.005 48.032 42.985ZM61.5723 43.15C60.4923 43.15 59.7373 42.935 59.3073 42.505C58.8773 42.075 58.6623 41.47 58.6623 40.69C58.6623 39.52 59.0523 38.72 59.8323 38.29C60.6223 37.85 62.0723 37.63 64.1823 37.63H64.6773C64.6673 37.25 64.6323 36.945 64.5723 36.715C64.5223 36.475 64.4173 36.265 64.2573 36.085C64.1073 35.905 63.8823 35.78 63.5823 35.71C63.2923 35.63 62.9123 35.59 62.4423 35.59C61.5223 35.59 60.6973 35.83 59.9673 36.31L59.3673 35.425C59.6973 35.195 60.1473 34.99 60.7173 34.81C61.2973 34.62 61.9023 34.525 62.5323 34.525C63.2323 34.525 63.7923 34.585 64.2123 34.705C64.6423 34.825 64.9723 35.03 65.2023 35.32C65.4323 35.61 65.5823 35.95 65.6523 36.34C65.7323 36.72 65.7723 37.23 65.7723 37.87V40.99C65.7723 41.44 65.8173 41.72 65.9073 41.83C65.9973 41.94 66.2373 41.995 66.6273 41.995V42.985C66.5773 43.005 66.4273 43.015 66.1773 43.015C65.7173 43.015 65.3923 42.94 65.2023 42.79C65.0223 42.63 64.8973 42.36 64.8273 41.98C64.5673 42.38 64.1823 42.675 63.6723 42.865C63.1723 43.055 62.4723 43.15 61.5723 43.15ZM61.7373 42.175C62.7773 42.175 63.5273 41.945 63.9873 41.485C64.4473 41.015 64.6773 40.275 64.6773 39.265V38.665H64.2423C63.0123 38.665 62.0823 38.72 61.4523 38.83C60.8323 38.94 60.3923 39.13 60.1323 39.4C59.8823 39.67 59.7573 40.075 59.7573 40.615C59.7573 41.135 59.9023 41.525 60.1923 41.785C60.4923 42.045 61.0073 42.175 61.7373 42.175ZM68.4291 45.49V41.995H68.7891C69.1891 41.995 69.4441 41.92 69.5541 41.77C69.6741 41.62 69.7341 41.33 69.7341 40.9V34.72H76.7991V41.995H78.1041V45.49H77.0241V43H69.4941V45.49H68.4291ZM70.5591 42.04H75.6741V35.74H70.8741V40.96C70.8741 41.49 70.7691 41.85 70.5591 42.04ZM81.4994 34.72V37.99H82.8344L85.5044 34.72H86.8244L83.7494 38.515L87.1394 43H85.8044L82.8494 39.115H81.4994V43H80.3744V34.72H81.4994ZM91.311 43.15C90.231 43.15 89.476 42.935 89.046 42.505C88.616 42.075 88.401 41.47 88.401 40.69C88.401 39.52 88.791 38.72 89.571 38.29C90.361 37.85 91.811 37.63 93.921 37.63H94.416C94.406 37.25 94.371 36.945 94.311 36.715C94.261 36.475 94.156 36.265 93.996 36.085C93.846 35.905 93.621 35.78 93.321 35.71C93.031 35.63 92.651 35.59 92.181 35.59C91.261 35.59 90.436 35.83 89.706 36.31L89.106 35.425C89.436 35.195 89.886 34.99 90.456 34.81C91.036 34.62 91.641 34.525 92.271 34.525C92.971 34.525 93.531 34.585 93.951 34.705C94.381 34.825 94.711 35.03 94.941 35.32C95.171 35.61 95.321 35.95 95.391 36.34C95.471 36.72 95.511 37.23 95.511 37.87V40.99C95.511 41.44 95.556 41.72 95.646 41.83C95.736 41.94 95.976 41.995 96.366 41.995V42.985C96.316 43.005 96.166 43.015 95.916 43.015C95.456 43.015 95.131 42.94 94.941 42.79C94.761 42.63 94.636 42.36 94.566 41.98C94.306 42.38 93.921 42.675 93.411 42.865C92.911 43.055 92.211 43.15 91.311 43.15ZM91.476 42.175C92.516 42.175 93.266 41.945 93.726 41.485C94.186 41.015 94.416 40.275 94.416 39.265V38.665H93.981C92.751 38.665 91.821 38.72 91.191 38.83C90.571 38.94 90.131 39.13 89.871 39.4C89.621 39.67 89.496 40.075 89.496 40.615C89.496 41.135 89.641 41.525 89.931 41.785C90.231 42.045 90.746 42.175 91.476 42.175ZM103.738 34.72V37.99H105.073L107.743 34.72H109.063L105.988 38.515L109.378 43H108.043L105.088 39.115H103.738V43H102.613V34.72H103.738ZM117.515 42.1C116.885 42.81 115.87 43.165 114.47 43.165C113.07 43.165 112.055 42.81 111.425 42.1C110.795 41.39 110.48 40.305 110.48 38.845C110.48 37.385 110.795 36.3 111.425 35.59C112.055 34.88 113.07 34.525 114.47 34.525C115.87 34.525 116.885 34.88 117.515 35.59C118.155 36.3 118.475 37.385 118.475 38.845C118.475 40.305 118.155 41.39 117.515 42.1ZM112.28 41.32C112.73 41.86 113.46 42.13 114.47 42.13C115.48 42.13 116.205 41.86 116.645 41.32C117.095 40.78 117.32 39.965 117.32 38.875C117.32 37.775 117.095 36.955 116.645 36.415C116.205 35.875 115.48 35.605 114.47 35.605C113.46 35.605 112.73 35.875 112.28 36.415C111.84 36.955 111.62 37.775 111.62 38.875C111.62 39.965 111.84 40.78 112.28 41.32ZM123.153 43V35.755H120.018V34.72H127.428V35.755H124.293V43H123.153ZM132.567 43.165C131.767 43.165 131.092 43.06 130.542 42.85C130.002 42.63 129.592 42.315 129.312 41.905C129.042 41.485 128.852 41.035 128.742 40.555C128.642 40.075 128.592 39.505 128.592 38.845C128.592 38.195 128.647 37.63 128.757 37.15C128.877 36.66 129.072 36.21 129.342 35.8C129.622 35.38 130.027 35.065 130.557 34.855C131.087 34.635 131.742 34.525 132.522 34.525C132.982 34.525 133.392 34.575 133.752 34.675C134.122 34.765 134.422 34.885 134.652 35.035C134.892 35.175 135.097 35.375 135.267 35.635C135.437 35.885 135.562 36.13 135.642 36.37C135.732 36.6 135.797 36.895 135.837 37.255C135.887 37.615 135.917 37.93 135.927 38.2C135.937 38.47 135.937 38.815 135.927 39.235H129.687C129.717 40.205 129.932 40.94 130.332 41.44C130.742 41.93 131.487 42.175 132.567 42.175C133.187 42.175 133.687 42.105 134.067 41.965C134.457 41.825 134.847 41.615 135.237 41.335L135.852 42.13C134.952 42.82 133.857 43.165 132.567 43.165ZM132.492 35.545C131.512 35.545 130.817 35.77 130.407 36.22C130.007 36.67 129.772 37.33 129.702 38.2H134.847C134.827 37.83 134.802 37.545 134.772 37.345C134.752 37.145 134.697 36.915 134.607 36.655C134.517 36.385 134.392 36.185 134.232 36.055C134.082 35.915 133.857 35.795 133.557 35.695C133.267 35.595 132.912 35.545 132.492 35.545ZM137.61 42.985V41.995H137.97C138.37 41.995 138.63 41.92 138.75 41.77C138.87 41.62 138.93 41.33 138.93 40.9V34.72H145.995V43H144.855V35.74H140.055V41.02C140.055 41.75 139.93 42.265 139.68 42.565C139.44 42.865 138.99 43.015 138.33 43.015C137.93 43.015 137.69 43.005 137.61 42.985ZM148.72 43V34.72H149.845V37.285H153.055C154.975 37.285 155.935 38.22 155.935 40.09C155.935 41.03 155.695 41.75 155.215 42.25C154.735 42.75 154.01 43 153.04 43H148.72ZM149.845 42.04H152.905C154.165 42.04 154.795 41.405 154.795 40.135C154.795 39.475 154.635 39 154.315 38.71C154.005 38.42 153.525 38.275 152.875 38.275H149.845V42.04ZM158.311 43V34.72H159.451V38.155H164.251V34.72H165.391V43H164.251V39.235H159.451V43H158.311ZM174.766 42.1C174.136 42.81 173.121 43.165 171.721 43.165C170.321 43.165 169.306 42.81 168.676 42.1C168.046 41.39 167.731 40.305 167.731 38.845C167.731 37.385 168.046 36.3 168.676 35.59C169.306 34.88 170.321 34.525 171.721 34.525C173.121 34.525 174.136 34.88 174.766 35.59C175.406 36.3 175.726 37.385 175.726 38.845C175.726 40.305 175.406 41.39 174.766 42.1ZM169.531 41.32C169.981 41.86 170.711 42.13 171.721 42.13C172.731 42.13 173.456 41.86 173.896 41.32C174.346 40.78 174.571 39.965 174.571 38.875C174.571 37.775 174.346 36.955 173.896 36.415C173.456 35.875 172.731 35.605 171.721 35.605C170.711 35.605 169.981 35.875 169.531 36.415C169.091 36.955 168.871 37.775 168.871 38.875C168.871 39.965 169.091 40.78 169.531 41.32ZM178.049 43V34.72H184.109V35.755H179.189V43H178.049ZM192.219 42.1C191.589 42.81 190.574 43.165 189.174 43.165C187.774 43.165 186.759 42.81 186.129 42.1C185.499 41.39 185.184 40.305 185.184 38.845C185.184 37.385 185.499 36.3 186.129 35.59C186.759 34.88 187.774 34.525 189.174 34.525C190.574 34.525 191.589 34.88 192.219 35.59C192.859 36.3 193.179 37.385 193.179 38.845C193.179 40.305 192.859 41.39 192.219 42.1ZM186.984 41.32C187.434 41.86 188.164 42.13 189.174 42.13C190.184 42.13 190.909 41.86 191.349 41.32C191.799 40.78 192.024 39.965 192.024 38.875C192.024 37.775 191.799 36.955 191.349 36.415C190.909 35.875 190.184 35.605 189.174 35.605C188.164 35.605 187.434 35.875 186.984 36.415C186.544 36.955 186.324 37.775 186.324 38.875C186.324 39.965 186.544 40.78 186.984 41.32ZM206.112 42.1C205.482 42.81 204.467 43.165 203.067 43.165C201.667 43.165 200.652 42.81 200.022 42.1C199.392 41.39 199.077 40.305 199.077 38.845C199.077 37.385 199.392 36.3 200.022 35.59C200.652 34.88 201.667 34.525 203.067 34.525C204.467 34.525 205.482 34.88 206.112 35.59C206.752 36.3 207.072 37.385 207.072 38.845C207.072 40.305 206.752 41.39 206.112 42.1ZM200.877 41.32C201.327 41.86 202.057 42.13 203.067 42.13C204.077 42.13 204.802 41.86 205.242 41.32C205.692 40.78 205.917 39.965 205.917 38.875C205.917 37.775 205.692 36.955 205.242 36.415C204.802 35.875 204.077 35.605 203.067 35.605C202.057 35.605 201.327 35.875 200.877 36.415C200.437 36.955 200.217 37.775 200.217 38.875C200.217 39.965 200.437 40.78 200.877 41.32ZM212.995 43.165C211.605 43.165 210.59 42.81 209.95 42.1C209.31 41.38 208.99 40.25 208.99 38.71V36.835C208.99 36.055 209.045 35.365 209.155 34.765C209.265 34.165 209.43 33.67 209.65 33.28C209.87 32.88 210.115 32.55 210.385 32.29C210.655 32.03 210.975 31.835 211.345 31.705C211.725 31.575 212.09 31.485 212.44 31.435C212.79 31.385 213.19 31.36 213.64 31.36H214.78V32.41H213.685C212.535 32.41 211.655 32.685 211.045 33.235C210.435 33.775 210.13 34.69 210.13 35.98C210.62 35.14 211.67 34.72 213.28 34.72C214.64 34.72 215.595 35.08 216.145 35.8C216.705 36.52 216.985 37.575 216.985 38.965C216.985 40.355 216.67 41.405 216.04 42.115C215.42 42.815 214.405 43.165 212.995 43.165ZM210.805 41.35C211.255 41.87 211.985 42.13 212.995 42.13C214.005 42.13 214.73 41.87 215.17 41.35C215.61 40.82 215.83 40.02 215.83 38.95C215.83 37.87 215.61 37.07 215.17 36.55C214.73 36.03 214.005 35.77 212.995 35.77C211.985 35.77 211.255 36.03 210.805 36.55C210.355 37.07 210.13 37.87 210.13 38.95C210.13 40.02 210.355 40.82 210.805 41.35ZM225.938 42.1C225.308 42.81 224.293 43.165 222.893 43.165C221.493 43.165 220.478 42.81 219.848 42.1C219.218 41.39 218.903 40.305 218.903 38.845C218.903 37.385 219.218 36.3 219.848 35.59C220.478 34.88 221.493 34.525 222.893 34.525C224.293 34.525 225.308 34.88 225.938 35.59C226.578 36.3 226.898 37.385 226.898 38.845C226.898 40.305 226.578 41.39 225.938 42.1ZM220.703 41.32C221.153 41.86 221.883 42.13 222.893 42.13C223.903 42.13 224.628 41.86 225.068 41.32C225.518 40.78 225.743 39.965 225.743 38.875C225.743 37.775 225.518 36.955 225.068 36.415C224.628 35.875 223.903 35.605 222.893 35.605C221.883 35.605 221.153 35.875 220.703 36.415C220.263 36.955 220.043 37.775 220.043 38.875C220.043 39.965 220.263 40.78 220.703 41.32ZM229.221 45.475V34.78L230.121 34.72L230.226 35.71C230.456 35.3 230.826 35 231.336 34.81C231.856 34.62 232.581 34.525 233.511 34.525C234.821 34.525 235.736 34.895 236.256 35.635C236.786 36.365 237.051 37.435 237.051 38.845C237.051 40.235 236.781 41.3 236.241 42.04C235.711 42.77 234.786 43.135 233.466 43.135C232.576 43.135 231.891 43.05 231.411 42.88C230.931 42.7 230.581 42.415 230.361 42.025V45.475H229.221ZM233.286 42.1C234.256 42.1 234.931 41.835 235.311 41.305C235.701 40.765 235.896 39.955 235.896 38.875C235.896 37.785 235.706 36.97 235.326 36.43C234.946 35.88 234.266 35.605 233.286 35.605C232.226 35.605 231.471 35.85 231.021 36.34C230.581 36.82 230.361 37.665 230.361 38.875C230.361 40.085 230.581 40.925 231.021 41.395C231.461 41.865 232.216 42.1 233.286 42.1ZM239.84 45.505C239.46 45.505 239.22 45.5 239.12 45.49V44.56H239.765C240.145 44.56 240.425 44.495 240.605 44.365C240.795 44.245 240.945 44.025 241.055 43.705L241.355 42.94L238.115 34.72H239.315L241.955 41.605L244.565 34.72H245.735L242.165 43.825C241.935 44.435 241.645 44.865 241.295 45.115C240.955 45.375 240.47 45.505 239.84 45.505ZM246.428 45.49V41.995H246.788C247.188 41.995 247.443 41.92 247.553 41.77C247.673 41.62 247.733 41.33 247.733 40.9V34.72H254.798V41.995H256.103V45.49H255.023V43H247.493V45.49H246.428ZM248.558 42.04H253.673V35.74H248.873V40.96C248.873 41.49 248.768 41.85 248.558 42.04ZM264.447 42.1C263.817 42.81 262.802 43.165 261.402 43.165C260.002 43.165 258.987 42.81 258.357 42.1C257.727 41.39 257.412 40.305 257.412 38.845C257.412 37.385 257.727 36.3 258.357 35.59C258.987 34.88 260.002 34.525 261.402 34.525C262.802 34.525 263.817 34.88 264.447 35.59C265.087 36.3 265.407 37.385 265.407 38.845C265.407 40.305 265.087 41.39 264.447 42.1ZM259.212 41.32C259.662 41.86 260.392 42.13 261.402 42.13C262.412 42.13 263.137 41.86 263.577 41.32C264.027 40.78 264.252 39.965 264.252 38.875C264.252 37.775 264.027 36.955 263.577 36.415C263.137 35.875 262.412 35.605 261.402 35.605C260.392 35.605 259.662 35.875 259.212 36.415C258.772 36.955 258.552 37.775 258.552 38.875C258.552 39.965 258.772 40.78 259.212 41.32ZM267.73 43V34.72H271.855C272.855 34.72 273.575 34.87 274.015 35.17C274.465 35.46 274.69 35.97 274.69 36.7C274.69 37.25 274.615 37.68 274.465 37.99C274.315 38.3 274.025 38.515 273.595 38.635C274.085 38.755 274.425 38.975 274.615 39.295C274.815 39.615 274.915 40.085 274.915 40.705C274.915 41.595 274.67 42.2 274.18 42.52C273.69 42.84 272.885 43 271.765 43H267.73ZM268.81 42.01H271.855C272.545 42.01 273.04 41.91 273.34 41.71C273.65 41.51 273.805 41.135 273.805 40.585C273.805 40.075 273.65 39.72 273.34 39.52C273.03 39.31 272.525 39.205 271.825 39.205H268.81V42.01ZM268.81 38.2H271.87C272.52 38.2 272.97 38.095 273.22 37.885C273.47 37.665 273.595 37.335 273.595 36.895C273.595 36.465 273.465 36.17 273.205 36.01C272.945 35.84 272.5 35.755 271.87 35.755H268.81V38.2ZM279.78 43.15C278.7 43.15 277.945 42.935 277.515 42.505C277.085 42.075 276.87 41.47 276.87 40.69C276.87 39.52 277.26 38.72 278.04 38.29C278.83 37.85 280.28 37.63 282.39 37.63H282.885C282.875 37.25 282.84 36.945 282.78 36.715C282.73 36.475 282.625 36.265 282.465 36.085C282.315 35.905 282.09 35.78 281.79 35.71C281.5 35.63 281.12 35.59 280.65 35.59C279.73 35.59 278.905 35.83 278.175 36.31L277.575 35.425C277.905 35.195 278.355 34.99 278.925 34.81C279.505 34.62 280.11 34.525 280.74 34.525C281.44 34.525 282 34.585 282.42 34.705C282.85 34.825 283.18 35.03 283.41 35.32C283.64 35.61 283.79 35.95 283.86 36.34C283.94 36.72 283.98 37.23 283.98 37.87V40.99C283.98 41.44 284.025 41.72 284.115 41.83C284.205 41.94 284.445 41.995 284.835 41.995V42.985C284.785 43.005 284.635 43.015 284.385 43.015C283.925 43.015 283.6 42.94 283.41 42.79C283.23 42.63 283.105 42.36 283.035 41.98C282.775 42.38 282.39 42.675 281.88 42.865C281.38 43.055 280.68 43.15 279.78 43.15ZM279.945 42.175C280.985 42.175 281.735 41.945 282.195 41.485C282.655 41.015 282.885 40.275 282.885 39.265V38.665H282.45C281.22 38.665 280.29 38.72 279.66 38.83C279.04 38.94 278.6 39.13 278.34 39.4C278.09 39.67 277.965 40.075 277.965 40.615C277.965 41.135 278.11 41.525 278.4 41.785C278.7 42.045 279.215 42.175 279.945 42.175ZM287.101 43V34.72H288.241V38.155H293.041V34.72H294.181V43H293.041V39.235H288.241V43H287.101ZM296.926 43V34.72H298.036V41.14L302.776 34.72H304.036V43H302.926V36.31L297.976 43H296.926ZM306.571 43L308.431 39.805C307.111 39.575 306.451 38.74 306.451 37.3C306.451 35.58 307.416 34.72 309.346 34.72H313.801V43H312.661V39.88H309.601L307.786 43H306.571ZM309.346 38.905H312.661V35.74H309.376C308.776 35.74 308.331 35.855 308.041 36.085C307.751 36.315 307.606 36.73 307.606 37.33C307.606 37.92 307.746 38.33 308.026 38.56C308.316 38.79 308.756 38.905 309.346 38.905Z" fill="#010101"/>
</svg>
