<svg width="44" height="44" viewBox="0 0 44 44" fill="none" xmlns="http://www.w3.org/2000/svg">
<path d="M0 33.7729C0.123887 33.3067 0.369349 32.8817 0.711294 32.5414C1.05324 32.2011 1.47941 31.9576 1.94625 31.8359C2.16746 31.7818 2.39535 31.76 2.62281 31.7711H9.83319C10.1856 31.758 10.5368 31.818 10.865 31.9472C11.1931 32.0763 11.4909 32.2719 11.7398 32.5217C11.9887 32.7715 12.1833 33.07 12.3114 33.3986C12.4394 33.7271 12.4981 34.0786 12.4838 34.431C12.4838 35.3578 12.4838 36.3494 12.4838 37.304C12.499 37.4908 12.4736 37.6787 12.4093 37.8548C12.3449 38.0309 12.2432 38.191 12.1111 38.324C11.979 38.457 11.8196 38.5598 11.644 38.6253C11.4683 38.6908 11.2805 38.7174 11.0936 38.7034H1.39018C1.09075 38.7132 0.795786 38.6291 0.546516 38.4629C0.297246 38.2967 0.106145 38.0568 0 37.7767V33.7729Z" fill="white"/>
<path d="M29.5088 38.7312H16.5802C15.4681 38.7312 15.0047 38.2586 15.0047 37.1372C15.0047 36.2104 15.0047 35.2836 15.0047 34.3569C14.9997 34.0159 15.0632 33.6774 15.1913 33.3615C15.3195 33.0455 15.5098 32.7584 15.7509 32.5173C15.992 32.2762 16.279 32.0859 16.595 31.9578C16.911 31.8296 17.2495 31.7662 17.5904 31.7711H29.8332C30.241 31.7711 30.3985 31.8916 30.3615 32.3086C30.3368 32.6171 30.3368 32.927 30.3615 33.2354C30.3557 33.5609 30.4743 33.8763 30.693 34.1174C30.9116 34.3584 31.214 34.5071 31.5385 34.5329C31.8574 34.5461 32.1691 34.436 32.409 34.2255C32.6488 34.0149 32.7984 33.7201 32.8267 33.4022C32.8686 33.0482 32.8686 32.6905 32.8267 32.3365C32.8267 31.9287 32.9379 31.7989 33.355 31.7989C35.5885 31.7989 37.8221 31.7989 40.0556 31.7989H41.3995C41.7397 31.7965 42.0771 31.8617 42.3919 31.9907C42.7067 32.1198 42.9927 32.3101 43.2333 32.5507C43.4739 32.7913 43.6643 33.0774 43.7934 33.3922C43.9225 33.7071 43.9877 34.0444 43.9852 34.3846C43.9852 35.3114 43.9852 36.2382 43.9852 37.2206C44.016 37.4244 43.9988 37.6326 43.935 37.8287C43.8712 38.0247 43.7625 38.2032 43.6176 38.3498C43.4728 38.4965 43.2957 38.6073 43.1005 38.6735C42.9053 38.7398 42.6973 38.7595 42.4931 38.7312H29.5088Z" fill="white"/>
<path d="M20.7507 29.278C19.6849 29.3244 18.3874 29.2132 17.0436 29.3336C15.8927 29.4423 14.8151 29.9466 13.9945 30.7609C13.7628 30.9926 13.6238 30.9833 13.4014 30.7609C12.9118 30.282 12.332 29.9052 11.6956 29.6522C11.0592 29.3993 10.3789 29.2752 9.69422 29.2873C8.01674 29.2873 6.33925 29.2873 4.67104 29.2873C4.28179 29.2873 4.14277 29.1761 4.15204 28.7775C4.15204 27.4337 4.15204 26.0899 4.15204 24.7461C4.15082 24.4086 4.21638 24.0742 4.34496 23.7622C4.47354 23.4502 4.66261 23.1666 4.90124 22.928C5.13987 22.6894 5.42334 22.5004 5.73536 22.3718C6.04738 22.2432 6.38175 22.1776 6.71922 22.1788C8.00745 22.1788 9.30496 22.1788 10.5839 22.1788C11.001 22.1788 11.1122 22.3179 11.0844 22.6978C11.0566 23.0778 11.0844 23.3003 11.0844 23.6246C11.0694 23.7986 11.0908 23.9738 11.1471 24.1391C11.2034 24.3044 11.2934 24.4562 11.4115 24.5848C11.5296 24.7135 11.6731 24.8162 11.833 24.8865C11.9928 24.9568 12.1655 24.993 12.3402 24.993C12.5148 24.993 12.6875 24.9568 12.8474 24.8865C13.0072 24.8162 13.1507 24.7135 13.2688 24.5848C13.3869 24.4562 13.4769 24.3044 13.5333 24.1391C13.5896 23.9738 13.6109 23.7986 13.596 23.6246C13.596 23.3095 13.596 22.9851 13.596 22.6978C13.596 22.4105 13.7072 22.2159 14.0594 22.2252C15.2734 22.2252 16.4968 22.2252 17.7109 22.2252H22.178C22.5304 22.2121 22.8816 22.272 23.2098 22.4012C23.5379 22.5304 23.8357 22.726 24.0846 22.9758C24.3336 23.2256 24.5281 23.5241 24.6561 23.8527C24.7842 24.1813 24.8429 24.5327 24.8286 24.885V28.7498C24.8286 29.3244 24.8286 29.3244 24.2262 29.3244L20.7507 29.278Z" fill="white"/>
<path d="M33.0585 19.658C32.0112 19.7044 30.7323 19.5932 29.4626 19.7136C28.3094 19.8138 27.229 20.3195 26.4134 21.1409C26.1817 21.3633 26.052 21.3633 25.8203 21.1409C25.3312 20.6608 24.7517 20.2825 24.1153 20.028C23.479 19.7734 22.7985 19.6477 22.1132 19.658H19.5831C19.2772 19.658 19.1475 19.5746 19.1475 19.2502C19.1475 17.8323 19.1475 16.4143 19.1475 14.9963C19.1789 14.36 19.4458 13.7581 19.8963 13.3077C20.3467 12.8572 20.9486 12.5903 21.5849 12.5588C22.3171 12.5588 23.0492 12.5588 23.7721 12.5588C24.0965 12.5588 24.2077 12.6793 24.1892 12.9852C24.1706 13.291 24.1892 13.6432 24.1892 13.9768C24.1742 14.1508 24.1956 14.326 24.2519 14.4913C24.3082 14.6566 24.3982 14.8084 24.5163 14.9371C24.6344 15.0657 24.7779 15.1684 24.9378 15.2387C25.0976 15.3089 25.2703 15.3452 25.445 15.3452C25.6196 15.3452 25.7923 15.3089 25.9522 15.2387C26.112 15.1684 26.2555 15.0657 26.3736 14.9371C26.4917 14.8084 26.5817 14.6566 26.638 14.4913C26.6944 14.326 26.7157 14.1508 26.7008 13.9768C26.7193 13.6342 26.7193 13.2908 26.7008 12.9481C26.7008 12.6794 26.7934 12.5588 27.0715 12.5588C29.6201 12.5588 32.1688 12.5588 34.7174 12.5588C35.3317 12.601 35.9093 12.8665 36.3413 13.3053C36.7732 13.7441 37.0297 14.3258 37.0622 14.9407C37.0622 16.3772 37.0622 17.8045 37.0622 19.241C37.0622 19.5561 36.9417 19.658 36.6266 19.6488L33.0585 19.658Z" fill="white"/>
<path d="M25.1901 10.0381C24.0408 10.0844 22.6229 9.96395 21.2049 10.0937C20.0767 10.2132 19.0251 10.721 18.2299 11.5302C17.9704 11.7804 17.8221 11.7619 17.5719 11.5302C16.802 10.7699 15.801 10.2874 14.7267 10.1586C14.4579 10.1586 14.3467 10.0288 14.3467 9.75079C14.3467 8.35135 14.3467 6.97041 14.3467 5.54316C14.3933 4.89478 14.6823 4.28777 15.1564 3.84294C15.6304 3.39812 16.2546 3.14814 16.9046 3.14282C17.1919 3.14282 17.3309 3.23549 17.3216 3.54133C17.3031 3.82524 17.3031 4.11005 17.3216 4.39396C17.3166 4.73585 17.4457 5.06613 17.6814 5.3139C17.917 5.56166 18.2404 5.70716 18.5821 5.71925C18.923 5.70247 19.244 5.5539 19.4774 5.3049C19.7109 5.0559 19.8385 4.72595 19.8333 4.38468V4.25497C19.8333 3.1521 19.8333 3.1521 20.9361 3.1521H26.9973C27.3564 3.13467 27.7152 3.19284 28.0504 3.32293C28.3857 3.45302 28.6898 3.65208 28.9432 3.9072C29.1966 4.16233 29.3935 4.46785 29.5213 4.80395C29.6491 5.14005 29.7048 5.49927 29.6849 5.85829C29.6849 7.09091 29.6849 8.31427 29.6849 9.56542C29.6849 9.97321 29.583 10.1215 29.1567 10.1122C27.9148 10.0195 26.6822 10.0381 25.1901 10.0381Z" fill="white"/>
<path d="M33.5403 29.2781C31.6867 29.2781 29.7683 29.2781 27.8776 29.2781C27.4884 29.2781 27.3586 29.1576 27.3679 28.7683C27.3679 27.4245 27.3679 26.0807 27.3679 24.7368C27.3654 24.399 27.4302 24.0641 27.5583 23.7515C27.6864 23.4389 27.8754 23.155 28.1143 22.9161C28.3532 22.6772 28.6372 22.4882 28.9498 22.36C29.2623 22.2319 29.5973 22.1672 29.9351 22.1696H37.1455C37.4829 22.1671 37.8173 22.2319 38.1294 22.3602C38.4415 22.4884 38.7249 22.6776 38.963 22.9166C39.2012 23.1556 39.3893 23.4397 39.5164 23.7522C39.6435 24.0647 39.7071 24.3995 39.7034 24.7368C39.7034 26.0992 39.7034 27.4523 39.7034 28.8147C39.7034 29.1761 39.5829 29.2781 39.2307 29.2781C37.3494 29.2688 35.4494 29.2781 33.5403 29.2781Z" fill="white"/>
<path d="M11.7423 19.6581C10.2965 19.6581 8.85074 19.6581 7.40495 19.6581C7.02497 19.6581 6.88594 19.5468 6.89521 19.1483C6.89521 17.8045 6.89521 16.4607 6.89521 15.1168C6.89275 14.7798 6.9572 14.4456 7.08476 14.1337C7.21232 13.8217 7.40048 13.5381 7.63838 13.2994C7.87627 13.0606 8.15916 12.8714 8.47067 12.7427C8.78217 12.6141 9.1161 12.5484 9.45314 12.5496H14.0036C14.3407 12.5472 14.6749 12.6116 14.9868 12.7392C15.2988 12.8667 15.5823 13.0549 15.8211 13.2928C16.0599 13.5307 16.249 13.8136 16.3777 14.1251C16.5064 14.4366 16.5721 14.7705 16.5708 15.1076C16.5708 16.4699 16.5708 17.8231 16.5708 19.1854C16.5708 19.5376 16.4596 19.6581 16.0982 19.6581C14.6895 19.6488 13.2251 19.6581 11.7423 19.6581Z" fill="white"/>
</svg>
