<svg width="45" height="44" viewBox="0 0 45 44" fill="none" xmlns="http://www.w3.org/2000/svg">
<path d="M30.2407 0.0185388C30.5133 0.166728 30.7271 0.403591 30.8466 0.689893C30.9662 0.976194 30.9844 1.29477 30.8982 1.59281C30.7483 2.45879 30.3455 3.26105 29.7406 3.89863C28.2775 5.43585 26.6014 6.55634 24.3326 6.37114C24.0362 6.37114 23.7307 6.37114 23.4065 6.37114C22.4805 6.37114 21.5545 6.30631 20.6284 6.37114C19.7121 6.40606 18.7989 6.24395 17.9506 5.89568C17.1023 5.54742 16.3386 5.02111 15.7112 4.35238C14.8777 3.63614 14.3154 2.65542 14.1184 1.57427C14.0296 1.27732 14.0456 0.958904 14.1636 0.672315C14.2816 0.385725 14.4945 0.148354 14.7666 0H15.5445L16.2298 0.435267C16.9802 0.955877 17.792 1.38198 18.6467 1.70393C18.818 1.77893 19.0102 1.79123 19.1897 1.73875C19.3692 1.68626 19.5244 1.57234 19.6283 1.41686C20.1734 0.708576 20.9447 0.208481 21.8138 0H23.1843C23.9531 0.1823 24.6458 0.599931 25.166 1.19462C25.7216 1.86137 25.8976 1.90765 26.7125 1.57427C26.9889 1.4616 27.258 1.33171 27.5181 1.18535L29.4536 0L30.2407 0.0185388Z" fill="white"/>
<path d="M22.5083 43.996C17.3349 43.996 12.1552 43.996 6.96942 43.996C6.24751 44.0324 5.53487 43.8208 4.94984 43.3963C4.36481 42.9718 3.9426 42.3598 3.75333 41.6622C3.56405 40.9646 3.61911 40.2233 3.90935 39.5613C4.19958 38.8993 4.70754 38.3565 5.34885 38.023C5.47924 37.971 5.5889 37.8776 5.66087 37.7571C5.73284 37.6366 5.76313 37.4957 5.74705 37.3563C5.74705 35.3838 5.69149 33.4114 5.74705 31.4389C5.77712 26.9559 7.20827 22.5945 9.84014 18.9652C11.0084 17.3006 12.5034 15.8912 14.234 14.8229C15.9645 13.7547 17.8944 13.0499 19.9061 12.7515C22.6598 12.2494 25.4984 12.5142 28.1117 13.517C30.7249 14.5198 33.012 16.222 34.7227 18.4374C37.0637 21.3707 38.5419 24.8979 38.9918 28.6238C39.1893 30.041 39.276 31.4714 39.251 32.9021C39.251 34.2911 39.251 35.6802 39.251 37.06C39.2197 37.2791 39.2606 37.5024 39.3675 37.6963C39.4745 37.8901 39.6416 38.0438 39.8437 38.1341C40.4418 38.4818 40.9052 39.021 41.159 39.6646C41.4127 40.3082 41.442 41.0186 41.242 41.6809C41.0596 42.3492 40.6607 42.9382 40.1077 43.3555C39.5547 43.7727 38.8788 43.9947 38.1861 43.9867C32.9818 44.0052 27.7034 43.996 22.5083 43.996Z" fill="white"/>
<path d="M22.4806 10.5198H19.4802C19.3299 10.5339 19.1784 10.5167 19.0351 10.4693C18.8918 10.4219 18.7599 10.3453 18.6476 10.2444C18.5354 10.1434 18.4453 10.0204 18.383 9.88292C18.3207 9.74544 18.2875 9.59654 18.2856 9.44562C18.2867 9.29446 18.3183 9.14507 18.3786 9.00645C18.439 8.86784 18.5267 8.74289 18.6366 8.63907C18.7464 8.53525 18.8762 8.45472 19.018 8.40236C19.1598 8.35 19.3107 8.32687 19.4617 8.33437H25.5458C25.6998 8.32415 25.8543 8.34587 25.9995 8.39818C26.1448 8.45048 26.2777 8.53226 26.3898 8.63833C26.502 8.74441 26.591 8.87254 26.6513 9.01465C26.7117 9.15676 26.742 9.30979 26.7404 9.46416C26.7348 9.61479 26.6984 9.76263 26.6334 9.89863C26.5684 10.0346 26.4762 10.1559 26.3625 10.2548C26.2488 10.3538 26.116 10.4283 25.9724 10.4739C25.8287 10.5195 25.6772 10.5351 25.5272 10.5198H22.4806Z" fill="white"/>
</svg>
