<svg width="44" height="44" viewBox="0 0 44 44" fill="none" xmlns="http://www.w3.org/2000/svg">
<path d="M43.9961 32.9574C43.8353 33.9081 43.7143 34.8587 43.5028 35.7951C43.1518 37.3504 42.5492 38.8116 41.5527 40.0893C40.486 41.4497 39.1337 42.1703 37.3094 42.1617C28.8813 42.1256 20.4532 42.1465 12.025 42.1465C11.8788 42.1465 11.714 42.1884 11.5911 42.1361C11.3269 42.0239 10.9817 41.9165 10.8628 41.7045C10.7575 41.5143 10.8267 41.1293 10.9701 40.9344C11.9963 39.5272 12.7215 37.933 13.1024 36.2467C14.0775 32.0638 13.8825 27.9664 11.9841 24.0307C11.7111 23.4603 11.3318 22.9422 10.9788 22.4145C10.7838 22.1293 10.6288 21.8137 10.8706 21.5485C11.0713 21.3373 11.3464 21.2079 11.6409 21.1863C20.3927 21.1685 29.1449 21.1644 37.8973 21.1739C39.3813 21.1739 40.4743 21.9345 41.3714 22.9925C42.6945 24.5611 43.3321 26.4235 43.7036 28.3866C43.8236 29.0207 43.8986 29.6624 43.9961 30.3012V32.9574ZM30.377 29.7318C30.9776 29.7318 31.5772 29.7318 32.1769 29.7318C32.7336 29.7261 33.0768 29.4466 33.07 29.0074C33.0632 28.5682 32.7268 28.3096 32.1574 28.3077C31.0224 28.3077 29.8875 28.3011 28.7526 28.3077C28.3226 28.3077 28.1403 28.1376 28.1481 27.7079C28.1695 26.4359 27.5864 25.5622 26.472 25.1515C25.3809 24.7484 24.3581 25.0194 23.503 25.9539C22.8878 26.626 22.3008 27.3238 21.6671 27.9778C21.4797 28.16 21.2318 28.2709 20.968 28.2906C19.8954 28.3239 18.8288 28.302 17.7582 28.3058C17.1985 28.3058 16.8592 28.591 16.866 29.0245C16.8729 29.458 17.2122 29.727 17.7777 29.7299C18.8502 29.7299 19.9227 29.7156 20.9875 29.7356C21.3282 29.7511 21.6678 29.6872 21.9781 29.5492C22.2884 29.4111 22.5605 29.2029 22.7718 28.9418C23.3782 28.2412 24.0071 27.5595 24.6243 26.8675C24.948 26.5043 25.338 26.3237 25.8333 26.4463C26.4076 26.5889 26.7001 27.0167 26.6904 27.6575C26.6709 28.9675 27.4314 29.7251 28.773 29.7308C29.3044 29.7337 29.8427 29.7318 30.377 29.7318ZM26.9078 34.6477C25.3692 34.6477 23.8297 34.6477 22.2911 34.6477C21.7685 34.6477 21.4379 34.9386 21.4428 35.3578C21.4428 35.76 21.7685 36.067 22.254 36.068C25.3488 36.0762 28.4432 36.0762 31.5373 36.068C31.9555 36.068 32.2549 35.8693 32.3173 35.4405C32.3884 34.9757 32.0433 34.6487 31.4739 34.6468C29.9538 34.6439 28.4269 34.6477 26.9078 34.6477ZM35.9307 34.6477C35.3301 34.6429 34.9918 34.9053 35.0005 35.3664C35.0083 35.8056 35.3545 36.0756 35.9083 36.0756C36.4621 36.0756 36.8024 35.8132 36.8102 35.3654C36.818 34.9177 36.5011 34.6515 35.9346 34.6477H35.9307Z" fill="white"/>
<path d="M30.8009 6.08111C31.3265 6.08111 31.8101 6.09917 32.2927 6.08111C33.9015 6.0079 34.9887 6.82453 35.8262 8.04804C36.8714 9.5691 37.3151 11.2984 37.4604 13.098C37.6232 15.1191 37.4321 17.1069 36.6706 19.0158C36.4229 19.6366 36.264 19.7431 35.5854 19.7431C30.4951 19.7431 25.4041 19.7431 20.3126 19.7431C19.4126 19.7431 19.1513 19.3933 19.3824 18.5481C20.3048 15.178 20.2219 11.8592 18.8042 8.62033C18.6092 8.17256 18.2962 7.77233 18.107 7.32362C17.9949 7.05743 17.9003 6.68383 18.0095 6.46042C18.107 6.26173 18.4971 6.10392 18.7662 6.10107C20.9717 6.07255 23.1762 6.07825 25.3817 6.09251C25.7123 6.09251 25.9219 5.99744 26.1023 5.73221C26.3714 5.33768 26.6727 4.96408 26.9671 4.58666C27.5941 3.7824 28.4706 3.48674 29.3608 3.77384C30.2266 4.05239 30.7327 4.77205 30.7726 5.7769C30.7785 5.85105 30.7882 5.9271 30.8009 6.08111ZM25.7981 11.9752C26.3489 11.9752 26.9008 11.9838 27.4556 11.9752C27.9763 11.9648 28.3107 11.6748 28.3136 11.2594C28.3166 10.8439 27.987 10.5559 27.4605 10.5521C26.3756 10.5445 25.2897 10.5445 24.2029 10.5521C23.6949 10.5521 23.3907 10.8183 23.3761 11.2309C23.3615 11.6615 23.6764 11.96 24.1971 11.9743C24.7177 11.9885 25.2628 11.9752 25.7942 11.9762L25.7981 11.9752ZM29.6055 17.2238C29.9955 17.2238 30.3807 17.2362 30.7678 17.2238C31.2143 17.2058 31.5176 16.9054 31.5137 16.5156C31.5122 16.3314 31.4371 16.1551 31.3044 16.0241C31.1716 15.8931 30.9917 15.8177 30.8029 15.814C30.03 15.7906 29.2558 15.7906 28.4804 15.814C28.3829 15.8147 28.2866 15.8345 28.1972 15.8723C28.1077 15.91 28.027 15.965 27.9599 16.0339C27.8927 16.1027 27.8405 16.1841 27.8063 16.273C27.7721 16.362 27.7566 16.4568 27.7608 16.5517C27.7783 16.9244 28.0708 17.2058 28.493 17.2238C28.8635 17.24 29.235 17.2238 29.6055 17.2248V17.2238ZM23.7495 17.2238C24.4603 17.2286 24.8659 16.8436 24.707 16.3198C24.5773 15.8901 24.0664 15.6847 23.4395 15.8111C23.254 15.8411 23.0871 15.9385 22.9724 16.0837C22.8577 16.2289 22.8037 16.4111 22.8213 16.5935C22.8759 17.0125 23.1843 17.2238 23.7466 17.2276L23.7495 17.2238Z" fill="white"/>
<path d="M12.1937 31.6654C12.181 33.9784 11.8222 36.2286 10.8286 38.3439C10.3099 39.4457 9.63911 40.4439 8.65238 41.2101C7.05919 42.446 5.15594 42.4526 3.56957 41.2044C2.27766 40.1882 1.48984 38.8278 0.980877 37.3276C-0.39781 33.2531 -0.349058 29.1975 1.29191 25.1943C1.72661 24.0994 2.41152 23.1156 3.29461 22.3176C5.00481 20.7965 7.18009 20.7746 8.89906 22.2938C10.345 23.5715 11.088 25.2409 11.596 27.0291C12.0153 28.5399 12.2165 30.1004 12.1937 31.6654ZM2.81197 31.6997C2.89192 32.406 2.92995 33.1342 3.06548 33.8453C3.29851 35.0669 3.69145 36.2372 4.65088 37.127C5.50597 37.9189 6.59215 38.0007 7.45797 37.281C7.86553 36.9426 8.18339 36.4834 8.4798 36.0395C8.70795 35.6953 8.55682 35.2932 8.21752 35.1011C8.05437 35.0108 7.86199 34.9845 7.67968 35.0278C7.49737 35.0711 7.3389 35.1807 7.23664 35.3341C7.09526 35.5242 6.98216 35.74 6.82908 35.9206C6.36789 36.4644 5.89111 36.4853 5.48257 35.8988C5.14552 35.4195 4.88269 34.8945 4.70255 34.3406C4.24721 32.9003 4.21504 31.4249 4.47829 29.94C4.5758 29.3896 4.34667 29.0293 3.90108 28.9646C3.43697 28.8981 3.11326 29.1548 3.0372 29.7042C2.94848 30.3592 2.88802 31.019 2.81197 31.6997ZM6.12706 25.6344C5.41432 25.6477 4.85953 25.971 4.42077 26.49C4.17993 26.7752 4.19456 27.1175 4.45879 27.396C4.73863 27.6907 5.07501 27.7164 5.4192 27.4911C5.50904 27.4246 5.59437 27.3525 5.67465 27.2753C6.01299 26.9815 6.36302 26.9901 6.65747 27.3057C6.90238 27.5561 7.1048 27.8431 7.25712 28.1556C7.47942 28.6595 7.61885 29.2013 7.80508 29.7156C7.94451 30.1026 8.3121 30.305 8.68261 30.191C9.07262 30.0712 9.27932 29.7879 9.20327 29.3953C8.99462 28.3144 8.61825 27.2933 7.85871 26.4539C7.40337 25.951 6.8476 25.6211 6.12706 25.6344V25.6344ZM9.42168 32.521C9.4246 32.4262 9.40772 32.3317 9.37206 32.2434C9.33639 32.155 9.28269 32.0747 9.21421 32.0072C9.14573 31.9397 9.06391 31.8865 8.9737 31.8508C8.88349 31.8151 8.78677 31.7976 8.68943 31.7995C8.24092 31.7995 7.94256 32.1294 7.95329 32.6161C7.96206 33.0401 8.26334 33.3415 8.67968 33.3415C9.12136 33.3415 9.43338 32.9954 9.42168 32.521V32.521Z" fill="white"/>
<path d="M13.6229 19.7403C12.6021 19.7403 11.5812 19.7403 10.5604 19.7403C10.1353 19.7403 9.79987 19.6281 9.63997 19.1994C8.31003 15.622 8.31394 12.0818 10.0739 8.64131C10.4307 7.94448 11.0099 7.30087 11.6271 6.79702C12.879 5.77411 14.4546 5.84636 15.7222 6.85787C16.7947 7.72012 17.4295 8.87042 17.838 10.1386C18.8013 13.1275 18.7565 16.1021 17.6537 19.0568C17.4704 19.5473 17.1594 19.7527 16.6348 19.7441C15.6325 19.7289 14.6272 19.7403 13.6229 19.7403ZM12.1604 13.9517C11.8153 13.9745 11.5101 14.1656 11.5032 14.5725C11.4847 15.6524 11.6983 16.6868 12.4383 17.5348C12.6679 17.775 12.956 17.9549 13.2758 18.0576C13.6337 18.1803 13.9584 18.0177 14.1036 17.6612C14.2401 17.3199 14.128 17.0376 13.8336 16.779C13.582 16.5594 13.3285 16.2856 13.2134 15.9861C13.0574 15.5802 13.0184 15.1305 12.9531 14.6932C12.879 14.2265 12.6314 13.9593 12.1585 13.9517H12.1604ZM13.5703 12.0114C14.2333 12.3071 14.635 12.2234 14.8378 11.7699C15.026 11.3469 14.7803 10.9277 14.1943 10.6738C13.3343 10.3002 12.1009 10.9486 12.0073 11.8736C11.9839 12.1112 12.1731 12.4506 12.3759 12.6065C12.646 12.8147 12.997 12.7273 13.2417 12.4554C13.3558 12.3232 13.4484 12.174 13.5703 12.0114ZM14.3025 13.966C14.2947 14.466 14.5726 14.8007 15.0094 14.8216C15.4229 14.8387 15.7553 14.505 15.767 14.061C15.7797 13.5734 15.4872 13.2302 15.0475 13.2178C14.6077 13.2054 14.3094 13.4954 14.3025 13.9622V13.966Z" fill="white"/>
</svg>
